<?xml version="1.0" encoding="UTF-8"?>
<!DOCTYPE svg PUBLIC "-//W3C//DTD SVG 1.1//EN" "http://www.w3.org/Graphics/SVG/1.1/DTD/svg11.dtd">
<svg xmlns="http://www.w3.org/2000/svg" version="1.1" width="96px" height="96px" style="shape-rendering:geometricPrecision; text-rendering:geometricPrecision; image-rendering:optimizeQuality; fill-rule:evenodd; clip-rule:evenodd" xmlns:xlink="http://www.w3.org/1999/xlink">
<g><path style="opacity:1" fill="#fafcfb" d="M -0.5,-0.5 C 31.5,-0.5 63.5,-0.5 95.5,-0.5C 95.5,31.5 95.5,63.5 95.5,95.5C 63.5,95.5 31.5,95.5 -0.5,95.5C -0.5,63.5 -0.5,31.5 -0.5,-0.5 Z"/></g>
<g><path style="opacity:1" fill="#453213" d="M 39.5,6.5 C 44.9007,5.96637 49.9007,7.13304 54.5,10C 62.1201,17.3008 69.9534,24.1342 78,30.5C 79.5869,36.6057 78.0869,41.7723 73.5,46C 71.9751,47.0086 70.3084,47.5086 68.5,47.5C 67.6481,50.2234 66.4814,52.89 65,55.5C 62.3333,56.8333 60.3333,58.8333 59,61.5C 56,70.1667 53,78.8333 50,87.5C 45.4982,91.8672 41.8315,91.2005 39,85.5C 36.1973,76.7584 33.1973,68.0917 30,59.5C 25.635,57.1161 22.9683,53.4495 22,48.5C 12.422,42.2039 11.2554,34.7039 18.5,26C 20.6504,24.5886 22.9837,23.7553 25.5,23.5C 26.5584,14.7818 31.2251,9.11513 39.5,6.5 Z"/></g>
<g><path style="opacity:1" fill="#c6a167" d="M 54.5,65.5 C 49.5562,63.5374 45.2229,64.5374 41.5,68.5C 38.1512,67.1697 37.8179,67.6697 40.5,70C 40.0426,70.414 39.7093,70.914 39.5,71.5C 45.0175,73.1622 45.6842,75.8289 41.5,79.5C 41.8333,79.8333 42.1667,80.1667 42.5,80.5C 43.7193,79.7366 44.7193,78.7366 45.5,77.5C 46.8518,78.5244 48.1851,79.5244 49.5,80.5C 49.3766,83.374 48.3766,85.874 46.5,88C 44.6332,88.7112 43.1332,88.2112 42,86.5C 38.9852,78.2916 36.4852,69.9583 34.5,61.5C 40.8255,62.2483 47.3255,62.2483 54,61.5C 54.8333,61.6667 55.6667,61.8333 56.5,62C 55.9152,63.3024 55.2485,64.469 54.5,65.5 Z"/></g>
<g><path style="opacity:1" fill="#b6a893" d="M 35.5,47.5 C 36.8929,50.4343 38.8929,52.9343 41.5,55C 43.6175,55.2602 45.2842,56.2602 46.5,58C 48.8098,58.4966 51.1432,58.6633 53.5,58.5C 47.8698,59.2488 42.2031,59.2488 36.5,58.5C 31.2168,58.0277 27.5501,55.361 25.5,50.5C 28.9298,49.7102 32.2632,48.7102 35.5,47.5 Z"/></g>
<g><path style="opacity:1" fill="#dad6cc" d="M 59.5,44.5 C 61.2944,45.2329 62.9611,46.2329 64.5,47.5C 64.7676,51.7503 62.7676,54.9169 58.5,57C 56.8455,57.6077 55.1789,58.1077 53.5,58.5C 51.1432,58.6633 48.8098,58.4966 46.5,58C 45.2842,56.2602 43.6175,55.2602 41.5,55C 38.8929,52.9343 36.8929,50.4343 35.5,47.5C 36.1499,47.1961 36.8165,46.8627 37.5,46.5C 45.2386,50.6339 52.572,49.9672 59.5,44.5 Z"/></g>
<g><path style="opacity:1" fill="#aed0db" d="M 18.5,30.5 C 18.5,31.8333 18.5,33.1667 18.5,34.5C 18.971,39.9171 21.971,42.2504 27.5,41.5C 27.5,43.1667 27.5,44.8333 27.5,46.5C 17.7244,44.7849 14.7244,39.4515 18.5,30.5 Z"/></g>
<g><path style="opacity:1" fill="#d3e6ed" d="M 32.5,30.5 C 32.1377,37.004 34.6377,38.6707 40,35.5C 40.49,34.2068 40.6567,32.8734 40.5,31.5C 42.0743,34.4304 41.4076,36.9304 38.5,39C 48.1667,39.6667 57.8333,39.6667 67.5,39C 70.1941,36.7423 72.8607,34.5757 75.5,32.5C 76.7876,35.597 76.2876,38.597 74,41.5C 70.8436,43.7929 67.6769,45.7929 64.5,47.5C 62.9611,46.2329 61.2944,45.2329 59.5,44.5C 59.5,43.5 59.5,42.5 59.5,41.5C 55.6336,44.0088 51.3003,45.3421 46.5,45.5C 41.8146,44.9728 37.4812,43.6394 33.5,41.5C 33.5601,45.4851 31.5601,47.1518 27.5,46.5C 27.5,44.8333 27.5,43.1667 27.5,41.5C 21.971,42.2504 18.971,39.9171 18.5,34.5C 22.2376,38.5254 26.9042,40.1921 32.5,39.5C 31.4489,36.3442 31.4489,33.3442 32.5,30.5 Z"/></g>
<g><path style="opacity:1" fill="#f7f9f8" d="M 75.5,32.5 C 72.8607,34.5757 70.1941,36.7423 67.5,39C 57.8333,39.6667 48.1667,39.6667 38.5,39C 41.4076,36.9304 42.0743,34.4304 40.5,31.5C 39.0804,28.6511 37.0804,27.9844 34.5,29.5C 33.8333,29.8333 33.1667,30.1667 32.5,30.5C 31.4489,33.3442 31.4489,36.3442 32.5,39.5C 26.9042,40.1921 22.2376,38.5254 18.5,34.5C 18.5,33.1667 18.5,31.8333 18.5,30.5C 20.8913,27.083 24.2246,25.7497 28.5,26.5C 28.3955,16.2695 33.3955,10.2695 43.5,8.5C 51.7936,9.29421 57.2936,13.6275 60,21.5C 60.3076,20.6919 60.8076,20.0253 61.5,19.5C 64.3905,21.0429 66.0571,23.3762 66.5,26.5C 71.0692,26.2766 74.0692,28.2766 75.5,32.5 Z"/></g>
<g><path style="opacity:1" fill="#157f8c" d="M 34.5,29.5 C 35.6135,30.6935 36.6135,32.0268 37.5,33.5C 38.5178,32.8075 39.5178,32.1408 40.5,31.5C 40.6567,32.8734 40.49,34.2068 40,35.5C 34.6377,38.6707 32.1377,37.004 32.5,30.5C 33.1667,30.1667 33.8333,29.8333 34.5,29.5 Z"/></g>
<g><path style="opacity:1" fill="#278b95" d="M 53.5,28.5 C 58.3652,28.6845 60.0319,31.0178 58.5,35.5C 54.7992,38.4351 52.1325,37.6017 50.5,33C 51.3146,31.3566 52.3146,29.8566 53.5,28.5 Z"/></g>
<g><path style="opacity:1" fill="#79b8c0" d="M 34.5,29.5 C 37.0804,27.9844 39.0804,28.6511 40.5,31.5C 39.5178,32.1408 38.5178,32.8075 37.5,33.5C 36.6135,32.0268 35.6135,30.6935 34.5,29.5 Z"/></g>
<g><path style="opacity:1" fill="#f2c1ce" d="M 24.5,30.5 C 29.378,30.5349 30.7113,32.8682 28.5,37.5C 25.4529,36.1249 24.1196,33.7916 24.5,30.5 Z"/></g>
<g><path style="opacity:1" fill="#f1c1cd" d="M 62.5,30.5 C 63.8333,30.5 65.1667,30.5 66.5,30.5C 66.8804,33.7916 65.5471,36.1249 62.5,37.5C 61.2857,35.1413 61.2857,32.808 62.5,30.5 Z"/></g>
<g><path style="opacity:1" fill="#d6eced" d="M 54.5,30.5 C 57.9571,30.6672 58.2904,31.6672 55.5,33.5C 54.6143,32.675 54.281,31.675 54.5,30.5 Z"/></g>
<g><path style="opacity:1" fill="#efc790" d="M 54.5,65.5 C 53.4054,70.7841 51.7387,75.7841 49.5,80.5C 48.1851,79.5244 46.8518,78.5244 45.5,77.5C 44.7193,78.7366 43.7193,79.7366 42.5,80.5C 42.1667,80.1667 41.8333,79.8333 41.5,79.5C 45.6842,75.8289 45.0175,73.1622 39.5,71.5C 39.7093,70.914 40.0426,70.414 40.5,70C 37.8179,67.6697 38.1512,67.1697 41.5,68.5C 45.2229,64.5374 49.5562,63.5374 54.5,65.5 Z"/></g>
</svg>
